<?xml version="1.0" encoding="UTF-8" standalone="no"?>
<!-- Created with Inkscape (http://www.inkscape.org/) -->

<svg
   xmlns:dc="http://purl.org/dc/elements/1.1/"
   xmlns:cc="http://creativecommons.org/ns#"
   xmlns:rdf="http://www.w3.org/1999/02/22-rdf-syntax-ns#"
   xmlns:svg="http://www.w3.org/2000/svg"
   xmlns="http://www.w3.org/2000/svg"
   xmlns:sodipodi="http://sodipodi.sourceforge.net/DTD/sodipodi-0.dtd"
   xmlns:inkscape="http://www.inkscape.org/namespaces/inkscape"
   width="25mm"
   height="25mm"
   viewBox="0 0 25 25"
   version="1.1"
   id="svg872"
   inkscape:version="0.92.4 (5da689c313, 2019-01-14)">
  <defs
     id="defs866" />
  <sodipodi:namedview
     id="base"
     pagecolor="#ffffff"
     bordercolor="#666666"
     borderopacity="1.0"
     inkscape:pageopacity="0.0"
     inkscape:pageshadow="2"
     inkscape:zoom="3.959798"
     inkscape:cx="89.756307"
     inkscape:cy="81.213358"
     inkscape:document-units="mm"
     inkscape:current-layer="layer1"
     showgrid="false"
     inkscape:showpageshadow="false"
     inkscape:window-width="1920"
     inkscape:window-height="986"
     inkscape:window-x="-11"
     inkscape:window-y="-11"
     inkscape:window-maximized="1" />
  <metadata
     id="metadata869">
    <rdf:RDF>
      <cc:Work
         rdf:about="">
        <dc:format>image/svg+xml</dc:format>
        <dc:type
           rdf:resource="http://purl.org/dc/dcmitype/StillImage" />
        <dc:title></dc:title>
      </cc:Work>
    </rdf:RDF>
  </metadata>
  <g
     inkscape:label="Layer 1"
     inkscape:groupmode="layer"
     id="layer1"
     transform="translate(0,-272)">
    <g
       id="g1729"
       transform="matrix(0.27393199,0,0,0.27393199,-1.1767941,270.87686)"
       style="fill:none;fill-opacity:1;stroke:#cc0001;stroke-opacity:1">
      <path
         inkscape:connector-curvature="0"
         d="m 53,29.9 c 0,-0.6 -0.2,-1.2 -0.5,-1.6 -0.3,-0.4 -1,-0.7 -1.9,-1.1 v 5.4 c 0.7,-0.1 1.3,-0.4 1.7,-0.9 0.5,-0.4 0.7,-1.1 0.7,-1.8 z"
         id="path1721"
         style="fill:none;fill-opacity:1;stroke:#cc0001;stroke-opacity:1" />
      <path
         inkscape:connector-curvature="0"
         d="m 49.5,20.3 c -0.7,0.1 -1.2,0.4 -1.6,0.8 -0.4,0.5 -0.6,1 -0.6,1.6 0,0.6 0.2,1.1 0.5,1.5 0.3,0.4 0.9,0.7 1.7,1 z"
         id="path1723"
         style="fill:none;fill-opacity:1;stroke:#cc0001;stroke-opacity:1" />
      <path
         inkscape:connector-curvature="0"
         d="m 50,38.3 c 6.2,0 11.3,-5.1 11.3,-11.3 0,-6.2 -5.1,-11.3 -11.3,-11.3 -6.2,0 -11.3,5.1 -11.3,11.3 0,6.2 5.1,11.3 11.3,11.3 z M 47.3,26.2 c -0.6,-0.3 -1,-0.8 -1.3,-1.3 -0.3,-0.6 -0.5,-1.2 -0.5,-1.9 0,-1.3 0.4,-2.3 1.4,-3.1 0.6,-0.5 1.5,-0.9 2.7,-1 V 18 h 1.1 v 0.9 c 1,0.1 1.9,0.4 2.5,0.9 0.8,0.6 1.3,1.5 1.4,2.7 l -1.8,0.3 c -0.1,-0.7 -0.3,-1.2 -0.7,-1.6 -0.3,-0.4 -0.8,-0.6 -1.4,-0.7 v 5.2 c 0.9,0.2 1.5,0.4 1.8,0.5 0.6,0.2 1,0.5 1.4,0.9 0.4,0.4 0.6,0.8 0.8,1.3 0.2,0.5 0.3,1 0.3,1.6 0,1.2 -0.4,2.3 -1.2,3.1 -0.8,0.8 -1.8,1.3 -3.1,1.3 V 36 H 49.6 V 34.2 C 48.7,34.1 48,33.9 47.4,33.6 46.8,33.3 46.4,32.8 46,32.2 45.6,31.6 45.4,30.8 45.3,29.8 l 1.8,-0.3 c 0.1,1 0.4,1.7 0.7,2.1 0.5,0.6 1.1,1 1.8,1.1 V 27 C 48.8,26.9 48,26.6 47.3,26.2 Z"
         id="path1725"
         style="fill:none;fill-opacity:1;stroke:#cc0001;stroke-opacity:1" />
      <path
         inkscape:connector-curvature="0"
         d="M 50,5 5,40 h 10 v 6 39 10 H 25 35 45 55 65 75 85 V 85 46 40 h 10 z m 0,10 c 6.6,0 12,5.4 12,12 0,6.6 -5.4,12 -12,12 C 43.4,39 38,33.6 38,27 38,20.4 43.4,15 50,15 Z M 25,85 V 46 h 10 v 39 z m 20,0 V 46 h 10 v 39 z m 20,0 V 46 h 10 v 39 z"
         id="path1727"
         style="fill:none;fill-opacity:1;stroke:#cc0001;stroke-opacity:1" />
    </g>
  </g>
</svg>
