<?xml version="1.0" encoding="UTF-8" standalone="no"?>
<!-- Created with Inkscape (http://www.inkscape.org/) -->

<svg
   xmlns:dc="http://purl.org/dc/elements/1.1/"
   xmlns:cc="http://creativecommons.org/ns#"
   xmlns:rdf="http://www.w3.org/1999/02/22-rdf-syntax-ns#"
   xmlns:svg="http://www.w3.org/2000/svg"
   xmlns="http://www.w3.org/2000/svg"
   xmlns:sodipodi="http://sodipodi.sourceforge.net/DTD/sodipodi-0.dtd"
   xmlns:inkscape="http://www.inkscape.org/namespaces/inkscape"
   width="25mm"
   height="25mm"
   viewBox="0 0 25 25"
   version="1.1"
   id="svg872"
   inkscape:version="0.92.4 (5da689c313, 2019-01-14)">
  <defs
     id="defs866" />
  <sodipodi:namedview
     id="base"
     pagecolor="#ffffff"
     bordercolor="#666666"
     borderopacity="1.0"
     inkscape:pageopacity="0.0"
     inkscape:pageshadow="2"
     inkscape:zoom="2.8"
     inkscape:cx="115.63864"
     inkscape:cy="55.600443"
     inkscape:document-units="mm"
     inkscape:current-layer="layer1"
     showgrid="false"
     inkscape:showpageshadow="false"
     inkscape:window-width="1920"
     inkscape:window-height="986"
     inkscape:window-x="-11"
     inkscape:window-y="-11"
     inkscape:window-maximized="1" />
  <metadata
     id="metadata869">
    <rdf:RDF>
      <cc:Work
         rdf:about="">
        <dc:format>image/svg+xml</dc:format>
        <dc:type
           rdf:resource="http://purl.org/dc/dcmitype/StillImage" />
        <dc:title></dc:title>
      </cc:Work>
    </rdf:RDF>
  </metadata>
  <g
     inkscape:label="Layer 1"
     inkscape:groupmode="layer"
     id="layer1"
     transform="translate(0,-272)">
    <g
       style="fill:none;fill-opacity:1;stroke:#cc0001;stroke-width:1.07565546;stroke-opacity:1"
       id="g1717"
       transform="matrix(0.29719907,0,0,0.29719907,-46.822415,-13.70798)">
      <g
         style="fill:none;fill-opacity:1;stroke:#cc0001;stroke-width:1.07565546;stroke-opacity:1"
         id="g1691"
         transform="translate(150.21673,953.72652)">
        <polygon
           style="fill:none;fill-opacity:1;stroke:#cc0001;stroke-width:1.07565546;stroke-opacity:1"
           points="32.094,75.184 44.055,75.184 38.074,59.238 "
           id="polygon1685" />
        <polygon
           style="fill:none;fill-opacity:1;stroke:#cc0001;stroke-width:1.07565546;stroke-opacity:1"
           points="55.941,75.184 67.904,75.184 61.924,59.238 "
           id="polygon1687" />
        <path
           style="fill:none;fill-opacity:1;stroke:#cc0001;stroke-width:1.07565546;stroke-opacity:1"
           inkscape:connector-curvature="0"
           d="m 0.06,48.887 v 8.819 H 9.424 V 91.115 H 90.99 V 57.707 h 8.949 v -8.82 z m 69.817,27.262 c -0.018,0.098 -0.055,0.19 -0.105,0.282 -0.008,0.007 -0.008,0.022 -0.014,0.035 -0.006,0.006 -0.012,0.008 -0.018,0.013 -0.057,0.075 -0.123,0.145 -0.205,0.204 0,0 -2.98,3.521 -7.611,3.521 -4.541,0 -7.611,-3.521 -7.611,-3.521 -0.08,-0.061 -0.146,-0.129 -0.205,-0.204 -0.004,-0.005 -0.012,-0.007 -0.016,-0.013 -0.004,-0.013 -0.004,-0.028 -0.014,-0.035 -0.053,-0.092 -0.088,-0.186 -0.105,-0.282 -0.004,-0.028 -0.012,-0.05 -0.018,-0.075 -0.01,-0.102 -0.004,-0.207 0.025,-0.305 0.004,-0.018 0.018,-0.023 0.018,-0.032 0.004,-0.007 0,-0.019 0.004,-0.021 l 6.742,-17.99 h -3.229 -6.15 l -0.02,24.808 h 5.734 v 2.722 H 42.765 v -2.722 h 5.864 L 48.63,57.726 H 42.476 39.25 l 6.745,17.99 c 0.002,0.004 0,0.015 0.002,0.021 0.002,0.009 0.012,0.017 0.017,0.032 0.027,0.098 0.035,0.203 0.022,0.305 -0.002,0.025 -0.007,0.047 -0.011,0.075 -0.021,0.098 -0.055,0.19 -0.105,0.282 -0.01,0.007 -0.01,0.022 -0.017,0.035 -0.002,0.006 -0.014,0.008 -0.014,0.013 -0.06,0.075 -0.124,0.145 -0.204,0.204 0,0 -3.072,3.521 -7.614,3.521 -4.626,0 -7.611,-3.521 -7.611,-3.521 -0.084,-0.061 -0.149,-0.129 -0.209,-0.204 0,-0.005 -0.004,-0.007 -0.009,-0.013 -0.01,-0.013 -0.01,-0.028 -0.015,-0.035 -0.056,-0.092 -0.09,-0.186 -0.107,-0.282 -0.006,-0.028 -0.011,-0.05 -0.013,-0.075 -0.012,-0.102 -0.005,-0.207 0.026,-0.305 0.004,-0.018 0.009,-0.023 0.015,-0.032 0.002,-0.007 0,-0.019 0.002,-0.021 l 7.157,-19.094 c 0,0 0.005,-0.003 0.01,-0.005 0.114,-0.306 0.408,-0.524 0.754,-0.524 h 4.303 6.256 V 53.1 h 0.013 1.35 0.009 1.348 0.016 v 2.994 h 6.258 4.301 c 0.346,0 0.639,0.22 0.754,0.524 0.004,0.002 0.01,0.005 0.01,0.005 l 7.156,19.094 c 0.006,0.004 0,0.015 0.006,0.021 0.004,0.009 0.01,0.017 0.018,0.032 0.025,0.098 0.031,0.203 0.021,0.305 -0.003,0.025 -0.009,0.046 -0.013,0.074 z"
           id="path1689" />
      </g>
      <circle
         style="fill:none;fill-opacity:1;stroke:#cc0001;stroke-width:1.07565546;stroke-opacity:1"
         cx="172.07072"
         cy="980.77454"
         r="5.4510002"
         id="circle1693" />
      <circle
         style="fill:none;fill-opacity:1;stroke:#cc0001;stroke-width:1.07565546;stroke-opacity:1"
         cx="186.45673"
         cy="980.77454"
         r="5.4510002"
         id="circle1695" />
      <circle
         style="fill:none;fill-opacity:1;stroke:#cc0001;stroke-width:1.07565546;stroke-opacity:1"
         cx="179.05173"
         cy="968.06152"
         r="5.4499998"
         id="circle1697" />
      <circle
         style="fill:none;fill-opacity:1;stroke:#cc0001;stroke-width:1.07565546;stroke-opacity:1"
         cx="193.76872"
         cy="968.06152"
         r="5.4499998"
         id="circle1699" />
      <circle
         style="fill:none;fill-opacity:1;stroke:#cc0001;stroke-width:1.07565546;stroke-opacity:1"
         cx="207.72873"
         cy="968.06152"
         r="5.4499998"
         id="circle1701" />
      <circle
         style="fill:none;fill-opacity:1;stroke:#cc0001;stroke-width:1.07565546;stroke-opacity:1"
         cx="221.61873"
         cy="968.06152"
         r="5.4499998"
         id="circle1703" />
      <circle
         style="fill:none;fill-opacity:1;stroke:#cc0001;stroke-width:1.07565546;stroke-opacity:1"
         cx="214.89473"
         cy="980.77454"
         r="5.4510002"
         id="circle1705" />
      <path
         style="fill:none;fill-opacity:1;stroke:#cc0001;stroke-width:1.07565546;stroke-opacity:1"
         inkscape:connector-curvature="0"
         d="m 200.74973,975.32452 c 3.008,0 5.449,2.438 5.449,5.451 0,3.008 -2.439,5.45 -5.449,5.45 -3.015,0 -5.451,-2.44 -5.451,-5.45 0,-3.012 2.436,-5.451 5.451,-5.451 z"
         id="path1707" />
      <path
         style="fill:none;fill-opacity:1;stroke:#cc0001;stroke-width:1.07565546;stroke-opacity:1"
         inkscape:connector-curvature="0"
         d="m 229.22473,975.32452 c 3.01,0 5.451,2.438 5.451,5.451 0,3.008 -2.441,5.45 -5.451,5.45 -3.016,0 -5.451,-2.44 -5.451,-5.45 0,-3.012 2.437,-5.451 5.451,-5.451 z"
         id="path1709" />
      <path
         style="fill:none;fill-opacity:1;stroke:#cc0001;stroke-width:1.07565546;stroke-opacity:1"
         inkscape:connector-curvature="0"
         d="m 184.50473,999.18752 v -3.861 c 0,-3.619 -2.129,-7.166 -6.364,-7.166 l -12.22,-0.006 c -3.859,0 -6.28,3.146 -6.28,7.072 v 3.961 z"
         id="path1711" />
      <path
         style="fill:none;fill-opacity:1;stroke:#cc0001;stroke-width:1.07565546;stroke-opacity:1"
         inkscape:connector-curvature="0"
         d="m 213.17973,999.18752 v -3.861 c 0,-3.619 -2.129,-7.166 -6.365,-7.166 l -12.22,-0.006 c -3.857,0 -6.275,3.146 -6.275,7.072 v 3.961 z"
         id="path1713" />
      <path
         style="fill:none;fill-opacity:1;stroke:#cc0001;stroke-width:1.07565546;stroke-opacity:1"
         inkscape:connector-curvature="0"
         d="m 241.65473,999.18752 v -3.861 c 0,-3.619 -2.131,-7.166 -6.365,-7.166 l -12.219,-0.006 c -3.857,0 -6.275,3.146 -6.275,7.072 v 3.961 z"
         id="path1715" />
    </g>
  </g>
</svg>
