<?xml version="1.0" encoding="UTF-8" standalone="no"?>
<!-- Created with Inkscape (http://www.inkscape.org/) -->

<svg
   xmlns:dc="http://purl.org/dc/elements/1.1/"
   xmlns:cc="http://creativecommons.org/ns#"
   xmlns:rdf="http://www.w3.org/1999/02/22-rdf-syntax-ns#"
   xmlns:svg="http://www.w3.org/2000/svg"
   xmlns="http://www.w3.org/2000/svg"
   xmlns:sodipodi="http://sodipodi.sourceforge.net/DTD/sodipodi-0.dtd"
   xmlns:inkscape="http://www.inkscape.org/namespaces/inkscape"
   width="25mm"
   height="25mm"
   viewBox="0 0 25 25"
   version="1.1"
   id="svg872"
   inkscape:version="0.92.4 (5da689c313, 2019-01-14)">
  <defs
     id="defs866" />
  <sodipodi:namedview
     id="base"
     pagecolor="#ffffff"
     bordercolor="#666666"
     borderopacity="1.0"
     inkscape:pageopacity="0.0"
     inkscape:pageshadow="2"
     inkscape:zoom="2.8"
     inkscape:cx="115.63864"
     inkscape:cy="84.171872"
     inkscape:document-units="mm"
     inkscape:current-layer="layer1"
     showgrid="false"
     inkscape:showpageshadow="false"
     inkscape:window-width="1920"
     inkscape:window-height="986"
     inkscape:window-x="-11"
     inkscape:window-y="-11"
     inkscape:window-maximized="1" />
  <metadata
     id="metadata869">
    <rdf:RDF>
      <cc:Work
         rdf:about="">
        <dc:format>image/svg+xml</dc:format>
        <dc:type
           rdf:resource="http://purl.org/dc/dcmitype/StillImage" />
        <dc:title></dc:title>
      </cc:Work>
    </rdf:RDF>
  </metadata>
  <g
     inkscape:label="Layer 1"
     inkscape:groupmode="layer"
     id="layer1"
     transform="translate(0,-272)">
    <g
       id="g864"
       transform="matrix(0.30560962,0,0,0.30560962,-2.6411059,269.14804)"
       style="fill:#cc0001;fill-opacity:1">
      <path
         id="path2"
         d="m 69.278809,54.061523 c -0.0068,0 -0.01416,0 -0.021,0 -8.184081,0.0127 -14.832519,6.680664 -14.820312,14.865235 0.0059,3.963867 1.555176,7.688476 4.362793,10.488281 2.801758,2.792969 6.522461,4.331055 10.478027,4.331055 0.0078,0 0.01563,0 0.02344,0 3.964355,-0.0059 7.688965,-1.554688 10.488281,-4.362305 C 82.589355,76.576172 84.12793,72.84668 84.12207,68.881836 84.109863,60.706055 77.453613,54.061523 69.278809,54.061523 Z m 9.095214,23.910157 c -2.422363,2.428711 -5.645019,3.769531 -9.075195,3.774414 -0.0068,0 -0.01318,0 -0.02051,0 -3.422363,0 -6.641601,-1.331055 -9.065918,-3.748047 -2.429199,-2.421875 -3.770019,-5.644531 -3.774902,-9.075195 -0.01025,-7.081055 5.742187,-12.850586 12.823242,-12.861329 0.0063,0 0.01172,0 0.01807,0 7.072753,0 12.833007,5.749024 12.843261,12.824219 0.0049,3.429688 -1.326172,6.65625 -3.748048,9.085938 z"
         inkscape:connector-curvature="0"
         style="fill:#cc0001;fill-opacity:1" />
      <path
         id="path4"
         d="m 40.298828,44.844727 c 1.777344,0.728515 3.642578,1.092773 5.507324,1.092773 1.904785,0 3.809571,-0.379883 5.619629,-1.140625 7.405274,-3.110352 10.910156,-11.689453 7.8125,-19.123047 -1.503906,-3.608398 -4.318847,-6.411133 -7.926758,-7.890625 -3.594238,-1.472656 -7.546386,-1.458008 -11.127929,0.04785 -7.405274,3.110351 -10.909668,11.688476 -7.812012,19.12207 1.503418,3.609375 4.318848,6.412109 7.927246,7.891602 z m 0.65918,-25.169922 c 1.561035,-0.655274 3.203125,-0.983399 4.846191,-0.983399 1.607422,0 3.21582,0.314453 4.748535,0.942383 3.112793,1.276367 5.541504,3.694336 6.839844,6.80957 2.674317,6.418946 -0.349609,13.825196 -6.741211,16.509766 -3.088379,1.295898 -6.495605,1.310547 -9.59375,0.04102 -3.112793,-1.276368 -5.541992,-3.695313 -6.840332,-6.810547 -2.674316,-6.417969 0.349609,-13.824219 6.740723,-16.508789 z"
         inkscape:connector-curvature="0"
         style="fill:#cc0001;fill-opacity:1" />
      <path
         id="path6"
         d="m 69.010254,47.830078 c -0.01025,0 -0.02148,0 -0.03223,0 -8.519043,0.0127 -16.041504,5.029297 -19.352051,12.839844 l -4.064941,0.0059 c -1.247559,0.002 -2.419434,0.489258 -3.300293,1.373047 -0.880859,0.883789 -1.365234,2.056641 -1.363281,3.304688 l 0.0038,2.550781 h -3.54817 C 36.876343,65.667541 34.899292,63.96875 32.520996,63.943359 l -4.09082,-0.04395 c -0.01904,0 -0.03809,0 -0.05713,0 -1.291626,0 -2.506348,0.493591 -3.436768,1.386719 C 24.757629,64.144165 24.207642,63.055115 23.262207,62.25 l -3.115723,-2.652344 c -0.535766,-0.455871 -1.149841,-0.777282 -1.803283,-0.971985 0.605102,-0.541076 1.08789,-1.209839 1.373596,-1.995788 l 1.40039,-3.84961 c 0.614563,-1.69104 0.244324,-3.494323 -0.797119,-4.810485 l 2.035828,-1.332886 1.686096,2.690246 c 0.665527,1.0625 1.704102,1.799805 2.924317,2.077149 1.217773,0.277344 2.469238,0.0625 3.52539,-0.605469 l 3.443848,-2.175781 c 3.628906,2.52832 7.818848,3.803711 12.019531,3.803711 3.877441,0 7.765137,-1.085938 11.230469,-3.275391 9.845215,-6.220703 12.814941,-19.322266 6.619629,-29.207031 -3.005371,-4.794922 -7.691407,-8.125 -13.195313,-9.37793 -5.492676,-1.2480467 -11.140137,-0.279297 -15.904785,2.731446 -7.219238,4.561523 -10.930176,12.852539 -9.580566,21.27246 l -3.447754,2.177735 c -2.1792,1.37793 -2.836914,4.277344 -1.466309,6.46582 l 1.082764,1.7276 -2.600708,1.702759 c -0.178345,-0.09125 -0.349365,-0.192749 -0.542115,-0.263367 -1.245117,-0.458007 -2.595214,-0.402343 -3.800293,0.158203 -1.208496,0.5625 -2.125976,1.563477 -2.583007,2.819336 l -1.400391,3.84961 c -0.939453,2.584961 0.391602,5.456054 2.967285,6.399414 0.09692,0.03571 0.197083,0.05072 0.295166,0.08014 -0.172546,0.154602 -0.347534,0.306213 -0.499756,0.486267 -1.770507,2.09668 -1.510254,5.251953 0.581055,7.03418 l 3.115234,2.65039 c 0.908692,0.774414 2.03711,1.189453 3.215332,1.189453 0.137207,0 0.275879,-0.0059 0.414551,-0.01758 1.155701,-0.09454 2.203675,-0.598266 3.026306,-1.394836 0.370728,2.367554 2.399964,4.20343 4.872132,4.229797 l 4.091308,0.04395 c 0.01855,0 0.03662,0 0.05469,0 1.312988,0 2.54834,-0.504883 3.484375,-1.424805 0.722961,-0.710632 1.196655,-1.605347 1.386841,-2.580078 h 3.53302 l 0.004,2.633789 c 0.002,1.248047 0.489258,2.419922 1.373047,3.300781 0.881836,0.879883 2.052246,1.363281 3.297363,1.363281 0.002,0 0.0044,0 0.0068,0 l 4.064941,-0.0059 c 3.32959,7.791992 10.852051,12.783203 19.357911,12.783203 0.01074,0 0.02148,0 0.03223,0 5.629395,-0.0088 10.918457,-2.208008 14.893067,-6.194336 3.974609,-3.987304 6.158691,-9.282226 6.15039,-14.911133 C 90.075683,63.244141 87.875976,57.955078 83.889648,53.980469 79.910645,50.013672 74.62793,47.830078 69.010254,47.830078 Z M 22.745117,38.439453 26.759766,35.90332 c 0.347656,-0.219726 0.52539,-0.630859 0.447753,-1.035156 -1.507812,-7.834961 1.854493,-15.638672 8.565918,-19.878906 4.312012,-2.724609 9.422364,-3.602539 14.392579,-2.472656 4.981933,1.133789 9.223632,4.148437 11.944824,8.490234 5.611328,8.953125 2.922851,20.820313 -5.993653,26.453125 -6.709472,4.239258 -15.167968,3.908203 -21.547851,-0.844727 -0.17627,-0.131835 -0.386719,-0.198242 -0.597168,-0.198242 -0.185059,0 -0.370606,0.05078 -0.53418,0.154297 l -4.014648,2.536133 c -0.603516,0.382812 -1.319336,0.503906 -2.013672,0.34668 -0.697754,-0.158203 -1.291992,-0.581055 -1.67334,-1.189453 l -3.831055,-6.113282 c -0.787597,-1.256836 -0.410644,-2.921875 0.839844,-3.711914 z m -10.498535,15.452149 1.400391,-3.84961 c 0.273437,-0.75293 0.822754,-1.352539 1.546386,-1.688476 0.397461,-0.185547 0.821289,-0.278321 1.247071,-0.278321 0.34375,0 0.688964,0.06055 1.021484,0.182618 1.542969,0.565429 2.339355,2.288085 1.775391,3.838867 l -1.400391,3.849609 c -0.273438,0.75293 -0.822754,1.352539 -1.545898,1.688477 -0.71875,0.334961 -1.526368,0.368164 -2.268067,0.0957 -4.88e-4,0 -4.88e-4,0 -4.88e-4,0 -1.543457,-0.56543 -2.339844,-2.288086 -1.775879,-3.838867 z m 10.067871,14.101562 c -0.513184,0.608398 -1.231445,0.978516 -2.022949,1.043945 -0.789551,0.06348 -1.562012,-0.18457 -2.169434,-0.701172 l -3.115234,-2.65039 c -1.254883,-1.069336 -1.411621,-2.962891 -0.349121,-4.220703 0.513183,-0.608399 1.231933,-0.978516 2.023437,-1.043945 0.08252,-0.0068 0.165039,-0.01074 0.247559,-0.01074 0.703613,0 1.37793,0.248047 1.920898,0.710938 l 3.116211,2.652344 c 1.255371,1.068359 1.411621,2.961914 0.348633,4.219726 z m 12.268066,3.06543 c -0.566894,0.557617 -1.325195,0.834961 -2.115722,0.850586 l -4.091309,-0.04395 c -1.648437,-0.01758 -2.980469,-1.37207 -2.969238,-3.019531 0.0054,-0.795898 0.320312,-1.540039 0.886719,-2.09668 0.559082,-0.548828 1.296875,-0.849609 2.081054,-0.849609 0.01123,0 0.02295,0 0.03418,0 l 4.091309,0.04395 c 1.648437,0.01758 2.97998,1.372071 2.96875,3.018555 -0.0054,0.795898 -0.319825,1.540039 -0.885743,2.09668 z m 34.455079,16.920898 c -0.01025,0 -0.01904,0 -0.0293,0 -7.904785,0 -14.873047,-4.765625 -17.755371,-12.147461 -0.149903,-0.383789 -0.519532,-0.636719 -0.931641,-0.636719 -4.88e-4,0 -9.77e-4,0 -0.0015,0 l -4.737304,0.0068 c -0.0015,0 -0.0024,0 -0.0039,0 -0.711914,0 -1.381347,-0.276367 -1.885254,-0.779297 -0.505371,-0.503906 -0.784179,-1.173828 -0.785156,-1.887695 l -0.01074,-7.18457 c -9.77e-4,-0.713867 0.275879,-1.384766 0.779297,-1.889649 0.503906,-0.504882 1.174316,-0.784179 1.887207,-0.785156 l 4.737305,-0.0068 c 0.412597,-9.76e-4 0.782226,-0.253906 0.931152,-0.638672 2.864258,-7.399414 9.831055,-12.188476 17.748535,-12.200195 0.0098,0 0.01953,0 0.0293,0 5.083984,0 9.866211,1.976563 13.467285,5.566406 3.60791,3.597657 5.599121,8.384766 5.606446,13.480469 0.01562,10.517578 -8.528321,19.086914 -19.046387,19.102539 z"
         inkscape:connector-curvature="0"
         style="fill:#cc0001;fill-opacity:1" />
    </g>
  </g>
</svg>
