<?xml version="1.0" encoding="UTF-8" standalone="no"?>
<!-- Created with Inkscape (http://www.inkscape.org/) -->

<svg
   xmlns:dc="http://purl.org/dc/elements/1.1/"
   xmlns:cc="http://creativecommons.org/ns#"
   xmlns:rdf="http://www.w3.org/1999/02/22-rdf-syntax-ns#"
   xmlns:svg="http://www.w3.org/2000/svg"
   xmlns="http://www.w3.org/2000/svg"
   xmlns:sodipodi="http://sodipodi.sourceforge.net/DTD/sodipodi-0.dtd"
   xmlns:inkscape="http://www.inkscape.org/namespaces/inkscape"
   width="25mm"
   height="25mm"
   viewBox="0 0 25 25"
   version="1.1"
   id="svg872"
   inkscape:version="0.92.4 (5da689c313, 2019-01-14)">
  <defs
     id="defs866" />
  <sodipodi:namedview
     id="base"
     pagecolor="#ffffff"
     bordercolor="#666666"
     borderopacity="1.0"
     inkscape:pageopacity="0.0"
     inkscape:pageshadow="2"
     inkscape:zoom="3.959798"
     inkscape:cx="113.74301"
     inkscape:cy="47.499408"
     inkscape:document-units="mm"
     inkscape:current-layer="layer1"
     showgrid="false"
     inkscape:showpageshadow="false"
     inkscape:window-width="1920"
     inkscape:window-height="986"
     inkscape:window-x="-11"
     inkscape:window-y="-11"
     inkscape:window-maximized="1" />
  <metadata
     id="metadata869">
    <rdf:RDF>
      <cc:Work
         rdf:about="">
        <dc:format>image/svg+xml</dc:format>
        <dc:type
           rdf:resource="http://purl.org/dc/dcmitype/StillImage" />
        <dc:title></dc:title>
      </cc:Work>
    </rdf:RDF>
  </metadata>
  <g
     inkscape:label="Layer 1"
     inkscape:groupmode="layer"
     id="layer1"
     transform="translate(0,-272)">
    <g
       id="g1883"
       transform="matrix(0.41187099,0,0,0.41187099,-0.51399954,271.30672)"
       style="fill:none;stroke:#cc0001;stroke-opacity:1">
      <path
         inkscape:connector-curvature="0"
         d="M 56,16 H 50.5 L 47,23 h -1 l 0.7,-7 H 46.6 40 c -1.654,0 -3,1.346 -3,3 v 6 c 0,1.654 1.346,3 3,3 h 4.649 L 51,33 v -5 h 5 c 1.654,0 3,-1.346 3,-3 v -6 c 0,-1.654 -1.346,-3 -3,-3 z"
         id="path1847"
         style="fill:none;stroke:#cc0001;stroke-opacity:1" />
      <polygon
         points="50,16 50.5,16 54,9 49,9 51,3 47,3 44,13 47,13 46.7,16 "
         id="polygon1849"
         style="fill:none;stroke:#cc0001;stroke-opacity:1" />
      <path
         inkscape:connector-curvature="0"
         d="M 21,48 V 43.91 C 19.824,43.707 18.74,43.154 17.879,42.293 L 17.871,42.285 C 16.397,43.227 14.731,43.77 13,43.929 V 48 c 0,2.206 1.794,4 4,4 2.206,0 4,-1.794 4,-4 z"
         id="path1851"
         style="fill:none;stroke:#cc0001;stroke-opacity:1" />
      <path
         inkscape:connector-curvature="0"
         d="m 11,47.722 v -3.444 c -0.595,0.347 -1,0.985 -1,1.722 0,0.737 0.405,1.375 1,1.722 z"
         id="path1853"
         style="fill:none;stroke:#cc0001;stroke-opacity:1" />
      <path
         inkscape:connector-curvature="0"
         d="m 15,53.65 v 0.017 l 2,2.667 2,-2.667 V 53.65 C 18.373,53.872 17.702,54 17,54 16.298,54 15.627,53.872 15,53.65 Z"
         id="path1855"
         style="fill:none;stroke:#cc0001;stroke-opacity:1" />
      <path
         inkscape:connector-curvature="0"
         d="M 25.053,56.963 20.35,55.2 17,59.667 13.65,55.2 8.947,56.964 C 7.782,57.4 7,58.528 7,59.772 V 61 H 27 V 59.772 C 27,58.528 26.218,57.4 25.053,56.963 Z"
         id="path1857"
         style="fill:none;stroke:#cc0001;stroke-opacity:1" />
      <path
         inkscape:connector-curvature="0"
         d="m 24,42 c 0,-3.86 -3.14,-7 -7,-7 -3.86,0 -7,3.14 -7,7 v 0.556 C 10.591,42.212 11.268,42 12,42 c 1.765,0 3.473,-0.518 4.941,-1.496 l 1.186,-0.791 1.166,1.166 C 20.016,41.602 20.978,42 22,42 c 0.732,0 1.409,0.212 2,0.556 z"
         id="path1859"
         style="fill:none;stroke:#cc0001;stroke-opacity:1" />
      <path
         inkscape:connector-curvature="0"
         d="M 23,47.722 C 23.595,47.375 24,46.737 24,46 24,45.263 23.595,44.625 23,44.278 Z"
         id="path1861"
         style="fill:none;stroke:#cc0001;stroke-opacity:1" />
      <path
         inkscape:connector-curvature="0"
         d="m 41,47.722 v -3.444 c -0.595,0.347 -1,0.985 -1,1.722 0,0.737 0.405,1.375 1,1.722 z"
         id="path1863"
         style="fill:none;stroke:#cc0001;stroke-opacity:1" />
      <path
         inkscape:connector-curvature="0"
         d="m 40,54.432 3,-1.125 V 52.46 C 42.243,51.781 41.66,50.915 41.325,49.932 40.847,49.85 40.404,49.679 40,49.444 Z"
         id="path1865"
         style="fill:none;stroke:#cc0001;stroke-opacity:1" />
      <path
         inkscape:connector-curvature="0"
         d="M 54,49.444 C 53.596,49.68 53.153,49.85 52.675,49.932 52.34,50.914 51.757,51.78 51,52.46 v 0.847 l 3,1.125 z"
         id="path1867"
         style="fill:none;stroke:#cc0001;stroke-opacity:1" />
      <path
         inkscape:connector-curvature="0"
         d="m 45,53.65 v 0.017 l 2,2.667 2,-2.667 V 53.65 C 48.373,53.872 47.702,54 47,54 46.298,54 45.627,53.872 45,53.65 Z"
         id="path1869"
         style="fill:none;stroke:#cc0001;stroke-opacity:1" />
      <path
         inkscape:connector-curvature="0"
         d="m 53,44.278 v 3.444 c 0.595,-0.347 1,-0.985 1,-1.722 0,-0.737 -0.405,-1.375 -1,-1.722 z"
         id="path1871"
         style="fill:none;stroke:#cc0001;stroke-opacity:1" />
      <path
         inkscape:connector-curvature="0"
         d="m 54,42 c 0,-3.86 -3.14,-7 -7,-7 -3.86,0 -7,3.14 -7,7 v 0.556 C 40.591,42.212 41.268,42 42,42 h 10 c 0.732,0 1.409,0.212 2,0.556 z"
         id="path1873"
         style="fill:none;stroke:#cc0001;stroke-opacity:1" />
      <path
         inkscape:connector-curvature="0"
         d="m 51,48 v -4 h -8 v 4 c 0,2.206 1.794,4 4,4 2.206,0 4,-1.794 4,-4 z"
         id="path1875"
         style="fill:none;stroke:#cc0001;stroke-opacity:1" />
      <path
         inkscape:connector-curvature="0"
         d="M 55.053,56.963 50.35,55.2 47,59.667 43.65,55.2 38.947,56.964 C 37.782,57.4 37,58.528 37,59.772 V 61 H 57 V 59.772 C 57,58.528 56.218,57.4 55.053,56.963 Z"
         id="path1877"
         style="fill:none;stroke:#cc0001;stroke-opacity:1" />
      <path
         inkscape:connector-curvature="0"
         d="m 24,14 h -6.75 l -0.167,2.003 C 17.036,16.567 16.565,17 16,17 15.435,17 14.964,16.567 14.917,16.003 L 14.75,14 H 8 c -1.654,0 -3,1.346 -3,3 v 8 c 0,1.654 1.346,3 3,3 h 5 v 5 l 6.351,-5 H 24 c 1.654,0 3,-1.346 3,-3 v -8 c 0,-1.654 -1.346,-3 -3,-3 z m -8,10 c -1.105,0 -2,-0.895 -2,-2 0,-1.105 0.895,-2 2,-2 1.105,0 2,0.895 2,2 0,1.105 -0.895,2 -2,2 z"
         id="path1879"
         style="fill:none;stroke:#cc0001;stroke-opacity:1" />
      <path
         inkscape:connector-curvature="0"
         d="M 17.167,14 H 17.25 L 17.993,5.08 C 17.998,5.027 18,4.973 18,4.92 18,3.86 17.14,3 16.08,3 H 15.92 C 14.86,3 14,3.86 14,4.92 c 0,0.053 0.002,0.106 0.007,0.159 L 14.75,14 h 0.083 z"
         id="path1881"
         style="fill:none;stroke:#cc0001;stroke-opacity:1" />
    </g>
  </g>
</svg>
