<?xml version="1.0" encoding="UTF-8" standalone="no"?>
<!-- Created with Inkscape (http://www.inkscape.org/) -->

<svg
   xmlns:dc="http://purl.org/dc/elements/1.1/"
   xmlns:cc="http://creativecommons.org/ns#"
   xmlns:rdf="http://www.w3.org/1999/02/22-rdf-syntax-ns#"
   xmlns:svg="http://www.w3.org/2000/svg"
   xmlns="http://www.w3.org/2000/svg"
   xmlns:sodipodi="http://sodipodi.sourceforge.net/DTD/sodipodi-0.dtd"
   xmlns:inkscape="http://www.inkscape.org/namespaces/inkscape"
   width="25mm"
   height="25mm"
   viewBox="0 0 25 25"
   version="1.1"
   id="svg872"
   inkscape:version="0.92.4 (5da689c313, 2019-01-14)">
  <defs
     id="defs866" />
  <sodipodi:namedview
     id="base"
     pagecolor="#ffffff"
     bordercolor="#666666"
     borderopacity="1.0"
     inkscape:pageopacity="0.0"
     inkscape:pageshadow="2"
     inkscape:zoom="3.959798"
     inkscape:cx="113.74301"
     inkscape:cy="57.600933"
     inkscape:document-units="mm"
     inkscape:current-layer="layer1"
     showgrid="false"
     inkscape:showpageshadow="false"
     inkscape:window-width="1920"
     inkscape:window-height="986"
     inkscape:window-x="-11"
     inkscape:window-y="-11"
     inkscape:window-maximized="1" />
  <metadata
     id="metadata869">
    <rdf:RDF>
      <cc:Work
         rdf:about="">
        <dc:format>image/svg+xml</dc:format>
        <dc:type
           rdf:resource="http://purl.org/dc/dcmitype/StillImage" />
        <dc:title></dc:title>
      </cc:Work>
    </rdf:RDF>
  </metadata>
  <g
     inkscape:label="Layer 1"
     inkscape:groupmode="layer"
     id="layer1"
     transform="translate(0,-272)">
    <g
       transform="matrix(0.26095511,0,0,0.26095511,77.231035,39.784298)"
       id="g2083"
       style="fill:none;fill-opacity:1;stroke:#cc0001;stroke-width:2;stroke-opacity:1">
      <path
         id="path2010"
         d="m -238.15866,957.2002 c 7.5,-3.9 12.2,-11.5 12.2,-20 0,-12.8 -10.8,-23.1 -23.7,-22.5 -11.7,0.6 -21.2,10.7 -21.3,22.4 0,8.5 4.6,16.1 12.2,20 1.7,0.9 2.8,2.8 2.8,4.8 0,0.1 0,0.1 0,0.2 h -2.5 v 10 c 0,5.5 4.5,10 10,10 5.5,0 10,-4.5 10,-10 v -9.9 h -2.5 v -0.2 c 0,-2.1 1.1,-3.9 2.8,-4.8 z m -7.8,4.8 v 0.2 h -5 c 0,-0.1 0,-0.1 0,-0.2 0,-3.9 -2.1,-7.5 -5.5,-9.3 -5.9,-3 -9.5,-9 -9.5,-15.6 0,-9.1 7.4,-16.9 16.5,-17.4 0.3,0 0.6,0 1,0 9.7,0 17.5,7.9 17.5,17.5 0,6.6 -3.6,12.5 -9.5,15.5 -3.4,1.8 -5.5,5.3 -5.5,9.3 z"
         inkscape:connector-curvature="0"
         style="fill:none;fill-opacity:1;stroke:#cc0001;stroke-width:2;stroke-opacity:1" />
      <path
         id="path2012"
         d="m -275.95866,937.2002 c 0,-1.4 -1.1,-2.5 -2.5,-2.5 h -12.5 c -1.4,0 -2.5,1.1 -2.5,2.5 0,1.4 1.1,2.5 2.5,2.5 h 12.5 c 1.4,0 2.5,-1.1 2.5,-2.5 z"
         inkscape:connector-curvature="0"
         style="fill:none;fill-opacity:1;stroke:#cc0001;stroke-width:2;stroke-opacity:1" />
      <path
         id="path2014"
         d="m -205.95866,934.7002 h -12.5 c -1.4,0 -2.5,1.1 -2.5,2.5 0,1.4 1.1,2.5 2.5,2.5 h 12.5 c 1.4,0 2.5,-1.1 2.5,-2.5 0,-1.4 -1.1,-2.5 -2.5,-2.5 z"
         inkscape:connector-curvature="0"
         style="fill:none;fill-opacity:1;stroke:#cc0001;stroke-width:2;stroke-opacity:1" />
      <path
         id="path2016"
         d="m -234.65866,913.4002 c 0.4,0.2 0.8,0.3 1.2,0.3 0.9,0 1.7,-0.4 2.2,-1.3 l 6.3,-10.8 c 0.7,-1.2 0.3,-2.7 -0.9,-3.4 -1.2,-0.7 -2.7,-0.3 -3.4,0.9 l -6.3,10.8 c -0.8,1.3 -0.3,2.8 0.9,3.5 z"
         inkscape:connector-curvature="0"
         style="fill:none;fill-opacity:1;stroke:#cc0001;stroke-width:2;stroke-opacity:1" />
      <path
         id="path2018"
         d="m -265.65866,912.5002 c 0.5,0.8 1.3,1.3 2.2,1.3 0.4,0 0.9,-0.1 1.2,-0.3 1.2,-0.7 1.6,-2.2 0.9,-3.4 l -6.3,-10.8 c -0.7,-1.2 -2.2,-1.6 -3.4,-0.9 -1.2,0.7 -1.6,2.2 -0.9,3.4 z"
         inkscape:connector-curvature="0"
         style="fill:none;fill-opacity:1;stroke:#cc0001;stroke-width:2;stroke-opacity:1" />
      <path
         id="path2020"
         d="m -272.25866,951.0002 c -0.7,-1.2 -2.2,-1.6 -3.4,-0.9 l -10.8,6.3 c -1.2,0.7 -1.6,2.2 -0.9,3.4 0.5,0.8 1.3,1.3 2.2,1.3 0.4,0 0.9,-0.1 1.2,-0.3 l 10.8,-6.3 c 1.2,-0.8 1.6,-2.4 0.9,-3.5 z"
         inkscape:connector-curvature="0"
         style="fill:none;fill-opacity:1;stroke:#cc0001;stroke-width:2;stroke-opacity:1" />
      <path
         id="path2022"
         d="m -224.65866,923.5002 c 0.5,0.8 1.3,1.3 2.2,1.3 0.4,0 0.9,-0.1 1.2,-0.3 l 10.8,-6.3 c 1.2,-0.7 1.6,-2.2 0.9,-3.4 -0.7,-1.2 -2.2,-1.6 -3.4,-0.9 l -10.8,6.3 c -1.2,0.5 -1.6,2.1 -0.9,3.3 z"
         inkscape:connector-curvature="0"
         style="fill:none;fill-opacity:1;stroke:#cc0001;stroke-width:2;stroke-opacity:1" />
      <path
         id="path2024"
         d="m -286.55866,918.1002 10.8,6.3 c 0.4,0.2 0.8,0.3 1.2,0.3 0.9,0 1.7,-0.4 2.2,-1.3 0.7,-1.2 0.3,-2.7 -0.9,-3.4 l -10.8,-6.3 c -1.2,-0.7 -2.7,-0.3 -3.4,0.9 -0.7,1.3 -0.3,2.8 0.9,3.5 z"
         inkscape:connector-curvature="0"
         style="fill:none;fill-opacity:1;stroke:#cc0001;stroke-width:2;stroke-opacity:1" />
      <path
         id="path2026"
         d="m -210.35866,956.3002 -10.8,-6.3 c -1.2,-0.7 -2.7,-0.3 -3.4,0.9 -0.7,1.2 -0.3,2.7 0.9,3.4 l 10.8,6.3 c 0.4,0.2 0.8,0.3 1.2,0.3 0.9,0 1.7,-0.4 2.2,-1.3 0.7,-1.1 0.3,-2.6 -0.9,-3.3 z"
         inkscape:connector-curvature="0"
         style="fill:none;fill-opacity:1;stroke:#cc0001;stroke-width:2;stroke-opacity:1" />
      <path
         id="path2028"
         d="m -248.45866,909.7002 c 1.4,0 2.5,-1.1 2.5,-2.5 v -12.5 c 0,-1.4 -1.1,-2.5 -2.5,-2.5 -1.4,0 -2.5,1.1 -2.5,2.5 v 12.5 c 0,1.4 1.1,2.5 2.5,2.5 z"
         inkscape:connector-curvature="0"
         style="fill:none;fill-opacity:1;stroke:#cc0001;stroke-width:2;stroke-opacity:1" />
      <path
         id="path2030"
         d="m -237.65866,943.5002 c 0.7,-1.2 0.3,-2.7 -0.9,-3.4 -1.2,-0.7 -2.7,-0.3 -3.4,0.9 -1.3,2.3 -3.8,3.8 -6.5,3.8 -2.7,0 -5.2,-1.4 -6.5,-3.8 -1.3,-2.4 -1.3,-5.2 0,-7.5 1.3,-2.3 3.8,-3.8 6.5,-3.8 2.7,0 5.2,1.4 6.5,3.8 0.7,1.2 2.2,1.6 3.4,0.9 1.2,-0.7 1.6,-2.2 0.9,-3.4 -2.2,-3.9 -6.4,-6.3 -10.8,-6.3 -4.4,0 -8.6,2.4 -10.8,6.3 -2.2,3.9 -2.2,8.6 0,12.5 2.2,3.9 6.4,6.3 10.8,6.3 4.4,0 8.6,-2.5 10.8,-6.3 z"
         inkscape:connector-curvature="0"
         style="fill:none;fill-opacity:1;stroke:#cc0001;stroke-width:2;stroke-opacity:1" />
    </g>
  </g>
</svg>
